<mxfile host="65bd71144e">
    <diagram id="eghO2PTSIAxIuZ5z_VGB" name="Page-1">
        <mxGraphModel dx="832" dy="475" grid="1" gridSize="10" guides="1" tooltips="1" connect="1" arrows="1" fold="1" page="1" pageScale="1" pageWidth="850" pageHeight="1100" background="none" math="0" shadow="0">
            <root>
                <mxCell id="0"/>
                <mxCell id="1" parent="0"/>
                <mxCell id="13" style="edgeStyle=none;html=1;exitX=0.69;exitY=0.01;exitDx=0;exitDy=0;entryX=0;entryY=0.5;entryDx=0;entryDy=0;exitPerimeter=0;startArrow=classic;startFill=1;" parent="1" source="3" target="28" edge="1">
                    <mxGeometry relative="1" as="geometry">
                        <mxPoint x="571" y="82" as="targetPoint"/>
                        <Array as="points">
                            <mxPoint x="409" y="82"/>
                        </Array>
                    </mxGeometry>
                </mxCell>
                <mxCell id="34" value="Manages loan request and&lt;br&gt;Employees in branch&amp;nbsp;" style="edgeLabel;html=1;align=center;verticalAlign=middle;resizable=0;points=[];" vertex="1" connectable="0" parent="13">
                    <mxGeometry x="-0.0436" y="-1" relative="1" as="geometry">
                        <mxPoint x="40" y="-2" as="offset"/>
                    </mxGeometry>
                </mxCell>
                <mxCell id="14" style="edgeStyle=none;html=1;entryX=0;entryY=0.5;entryDx=0;entryDy=0;startArrow=classic;startFill=1;" parent="1" source="3" target="26" edge="1">
                    <mxGeometry relative="1" as="geometry">
                        <mxPoint x="570" y="200" as="targetPoint"/>
                    </mxGeometry>
                </mxCell>
                <mxCell id="15" style="edgeStyle=none;html=1;entryX=0;entryY=0.5;entryDx=0;entryDy=0;exitX=0.6;exitY=1;exitDx=0;exitDy=0;exitPerimeter=0;startArrow=classic;startFill=1;" parent="1" source="3" target="32" edge="1">
                    <mxGeometry relative="1" as="geometry">
                        <mxPoint x="400" y="260" as="sourcePoint"/>
                        <mxPoint x="570" y="340" as="targetPoint"/>
                        <Array as="points">
                            <mxPoint x="400" y="340"/>
                        </Array>
                    </mxGeometry>
                </mxCell>
                <mxCell id="16" style="edgeStyle=none;html=1;exitX=0.4;exitY=1;exitDx=0;exitDy=0;exitPerimeter=0;startArrow=classic;startFill=1;" parent="1" source="3" edge="1">
                    <mxGeometry relative="1" as="geometry">
                        <mxPoint x="220" y="340" as="targetPoint"/>
                        <Array as="points">
                            <mxPoint x="380" y="340"/>
                        </Array>
                    </mxGeometry>
                </mxCell>
                <mxCell id="35" value="Controls Own Branch" style="edgeLabel;html=1;align=center;verticalAlign=middle;resizable=0;points=[];" vertex="1" connectable="0" parent="16">
                    <mxGeometry x="0.496" y="1" relative="1" as="geometry">
                        <mxPoint as="offset"/>
                    </mxGeometry>
                </mxCell>
                <mxCell id="17" style="edgeStyle=none;html=1;exitX=0.5;exitY=1;exitDx=0;exitDy=0;entryX=0.5;entryY=0;entryDx=0;entryDy=0;" parent="1" source="3" target="31" edge="1">
                    <mxGeometry relative="1" as="geometry">
                        <mxPoint x="390" y="390" as="targetPoint"/>
                    </mxGeometry>
                </mxCell>
                <mxCell id="19" style="edgeStyle=none;html=1;exitX=0.32;exitY=0.01;exitDx=0;exitDy=0;exitPerimeter=0;entryX=1;entryY=0.5;entryDx=0;entryDy=0;endArrow=classic;endFill=1;startArrow=classic;startFill=1;" parent="1" source="3" target="20" edge="1">
                    <mxGeometry relative="1" as="geometry">
                        <mxPoint x="220" y="80" as="targetPoint"/>
                        <Array as="points">
                            <mxPoint x="370" y="80"/>
                        </Array>
                    </mxGeometry>
                </mxCell>
                <mxCell id="33" value="Transaction/ loan" style="edgeLabel;html=1;align=center;verticalAlign=middle;resizable=0;points=[];" vertex="1" connectable="0" parent="19">
                    <mxGeometry x="0.4118" y="2" relative="1" as="geometry">
                        <mxPoint x="5" y="-2" as="offset"/>
                    </mxGeometry>
                </mxCell>
                <mxCell id="3" value="Banking&lt;br&gt;app" style="shape=ellipse;html=1;dashed=0;whitespace=wrap;perimeter=ellipsePerimeter;" parent="1" vertex="1">
                    <mxGeometry x="340" y="150" width="100" height="100" as="geometry"/>
                </mxCell>
                <mxCell id="10" style="edgeStyle=none;html=1;exitX=1;exitY=0.5;exitDx=0;exitDy=0;startArrow=classic;startFill=1;" parent="1" source="23" target="3" edge="1">
                    <mxGeometry relative="1" as="geometry">
                        <mxPoint x="220" y="200" as="sourcePoint"/>
                    </mxGeometry>
                </mxCell>
                <mxCell id="36" value="Controls Own Bank" style="edgeLabel;html=1;align=center;verticalAlign=middle;resizable=0;points=[];" vertex="1" connectable="0" parent="10">
                    <mxGeometry x="-0.45" relative="1" as="geometry">
                        <mxPoint x="27" as="offset"/>
                    </mxGeometry>
                </mxCell>
                <mxCell id="20" value="Customers/ users" style="html=1;dashed=0;whitespace=wrap;strokeColor=default;fontFamily=Helvetica;fontSize=12;fontColor=default;fillColor=default;" parent="1" vertex="1">
                    <mxGeometry x="120" y="55" width="100" height="50" as="geometry"/>
                </mxCell>
                <mxCell id="23" value="Other Banks" style="html=1;dashed=0;whitespace=wrap;strokeColor=default;fontFamily=Helvetica;fontSize=12;fontColor=default;fillColor=default;" parent="1" vertex="1">
                    <mxGeometry x="120" y="175" width="100" height="50" as="geometry"/>
                </mxCell>
                <mxCell id="24" value="Other Branches" style="html=1;dashed=0;whitespace=wrap;strokeColor=default;fontFamily=Helvetica;fontSize=12;fontColor=default;fillColor=default;" parent="1" vertex="1">
                    <mxGeometry x="120" y="315" width="100" height="50" as="geometry"/>
                </mxCell>
                <mxCell id="26" value="Account" style="html=1;dashed=0;whitespace=wrap;strokeColor=default;fontFamily=Helvetica;fontSize=12;fontColor=default;fillColor=default;" parent="1" vertex="1">
                    <mxGeometry x="570" y="175" width="100" height="50" as="geometry"/>
                </mxCell>
                <mxCell id="28" value="Bank Managers" style="html=1;dashed=0;whitespace=wrap;strokeColor=default;fontFamily=Helvetica;fontSize=12;fontColor=default;fillColor=default;" parent="1" vertex="1">
                    <mxGeometry x="570" y="55" width="100" height="50" as="geometry"/>
                </mxCell>
                <mxCell id="31" value="Login" style="html=1;dashed=0;whitespace=wrap;strokeColor=default;fontFamily=Helvetica;fontSize=12;fontColor=default;fillColor=default;" parent="1" vertex="1">
                    <mxGeometry x="340" y="390" width="100" height="50" as="geometry"/>
                </mxCell>
                <mxCell id="32" value="Transaction" style="html=1;dashed=0;whitespace=wrap;strokeColor=default;fontFamily=Helvetica;fontSize=12;fontColor=default;fillColor=default;" parent="1" vertex="1">
                    <mxGeometry x="570" y="315" width="100" height="50" as="geometry"/>
                </mxCell>
            </root>
        </mxGraphModel>
    </diagram>
</mxfile>